# xmcd
#
# Track frame offsets:
#	150
#	26045
#	45440
#	63955
#	95137
#	120957
#	144260
#	166870
#	183545
#	202300
#	226302
#	254770
#	283902
#	298610
#
# Disc length: 4314 seconds
#
# Revision: 1
# Processed by: cddbd v1.4PL0 Copyright (c) Steve Scherf et al.
# Submitted via: audiograbber 1.81.02
#
DISCID=d310d80e
DTITLE=The Neville Brothers - Live On Planet Earth
DYEAR=1900
DGENRE=
TTITLE0=Shake Your Tambourine
TTITLE1=Voodoo
TTITLE2=The Dealer
TTITLE3=Junk Man
TTITLE4=Brother Jake
TTITLE5=Sister Rosa
TTITLE6=Yellow Man
TTITLE7=Her African Eyes
TTITLE8=Sands Of Time
TTITLE9=Congo Square
TTITLE10=Love The One Your With - You Can't Always Get What You Want
TTITLE11=Let My People Go - Get Up Stand Up
TTITLE12=Amazing Grace
TTITLE13=One Love - People Get Ready - Sermon
EXTD=
EXTT0=
EXTT1=
EXTT2=
EXTT3=
EXTT4=
EXTT5=
EXTT6=
EXTT7=
EXTT8=
EXTT9=
EXTT10=
EXTT11=
EXTT12=
EXTT13=
PLAYORDER=
